<?xml version="1.0" encoding="utf-8"?>
<!-- Generator: Adobe Illustrator 25.1.0, SVG Export Plug-In . SVG Version: 6.00 Build 0)  -->
<svg version="1.1" id="Layer_1" xmlns="http://www.w3.org/2000/svg" xmlns:xlink="http://www.w3.org/1999/xlink" x="0px" y="0px"
	 viewBox="0 0 74.9 74.9" style="enable-background:new 0 0 74.9 74.9;" xml:space="preserve">
<style type="text/css">
	.st0{fill:#FFFFFF;stroke:#000000;stroke-miterlimit:10;}
	.st1{fill:#716B6B;}
	.st2{fill:#010101;}
	.st3{fill:#1C1B1B;}
</style>
<circle class="st0" cx="37.4" cy="37.5" r="37.5"/>
<g id="Layer_1_1_">
	<g id="No_Mouth">
		<path id="Head" class="st1" d="M62.9,43.4c-1.6-4-4-7.6-7-10.7l0,0c0,0,7.8-3,4.5-12.5c-4.7,0.2-8.6,3.9-9,8.6l0,0
			c-3.6-2.6-7.6-5.8-13.9-5.8c-6,0-10.3,3.2-13.9,5.8l0,0c-0.4-4.7-4.3-8.4-9-8.6c-3.2,9.5,4.5,12.5,4.5,12.5l0,0
			c-3,3.1-5.4,6.7-7,10.7c11.1-10.2,19.8-10.4,21.3-8s-1.5,11.8-1.5,11.8c1.8-0.6,3.7-0.9,5.6-0.8c1.9,0,3.8,0.2,5.6,0.8
			c0,0-3-9.4-1.5-11.8S51.7,33.2,62.9,43.4z M58.5,23.1c0.7,8.3-5,8.4-5,8.4C52.9,27.8,55,24.3,58.5,23.1z M21.4,31.5
			c0,0-5.7-0.1-5-8.4C19.8,24.3,21.9,27.8,21.4,31.5z"/>
		<g id="Mouth">
			<ellipse id="Nose" class="st2" cx="37.6" cy="52.3" rx="7.2" ry="2.5"/>
		</g>
		<g id="Mask">
			<g id="Left">
				<path class="st3" d="M17.9,58.9l0.2,0.2L17.9,58.9z"/>
				<path class="st3" d="M28.8,40c0,0-1.2-1.8-5.8,0.3c-4.4,2-11.5,9.9-11.5,9.9c1,3.6,5.5,7.8,6.5,8.7c-1.4-1.3-1.6-3.5-0.5-5
					c4.9-7.7,10.6-6.2,10.6-6.2C31.1,42.3,28.8,40,28.8,40z M24.8,46.4c-1.2,0-2.2-1-2.2-2.2c0-1.2,1-2.2,2.2-2.2s2.2,1,2.2,2.2
					C27,45.4,26,46.4,24.8,46.4C24.8,46.4,24.8,46.4,24.8,46.4L24.8,46.4z"/>
			</g>
			<path id="Right" class="st3" d="M47,47.6c0,0,5.7-1.5,10.6,6.2c1.1,1.5,0.9,3.7-0.5,5c0.9-0.8,5.4-5,6.5-8.7
				c0,0-7.1-7.9-11.5-9.9c-4.6-2.1-5.8-0.3-5.8-0.3S44,42.3,47,47.6z M48,44.2c0-1.2,1-2.2,2.2-2.2c1.2,0,2.2,1,2.2,2.2
				c0,1.2-1,2.2-2.2,2.2C49.1,46.4,48.1,45.4,48,44.2L48,44.2z"/>
		</g>
	</g>
</g>
<g id="Ring">
	<path class="st3" d="M37.5,0C16.8,0,0,16.8,0,37.5s16.8,37.5,37.5,37.5s37.4-16.8,37.4-37.5l0,0C74.9,16.8,58.1,0,37.5,0z M37.5,66
		C21.7,66,8.9,53.2,8.9,37.4S21.7,8.8,37.5,8.8S66,21.6,66,37.4c0,0,0,0,0,0C66,53.2,53.2,66,37.5,66C37.5,66.1,37.5,66.1,37.5,66
		L37.5,66z"/>
</g>
</svg>
